<svg xmlns="http://www.w3.org/2000/svg" viewBox="0 0 200 240" width="200" height="240"><defs><radialGradient id="thinking-h" cx="50%" cy="58%" r="50%"><stop offset="0%" stop-color="#7FE3D6" stop-opacity="0.4"/><stop offset="100%" stop-color="#7FE3D6" stop-opacity="0"/></radialGradient><radialGradient id="thinking-b" cx="50%" cy="68%" r="62%"><stop offset="0%" stop-color="#F4FFFD"/><stop offset="50%" stop-color="#7FE3D6"/><stop offset="100%" stop-color="#1F8F86"/></radialGradient></defs><circle cx="100" cy="140" r="100" fill="url(#thinking-h)"/><path d="M100 22 C 108 58 158 92 158 146 C 158 180 132 204 100 204 C 68 204 42 180 42 146 C 42 112 70 96 82 70 C 88 56 92 44 100 22 Z" fill="url(#thinking-b)"/><path d="M134 54 C 142 66 145 78 140 90 C 133 82 130 70 134 54 Z" fill="#7FE3D6" opacity="0.7"/><ellipse cx="88" cy="138" rx="6" ry="9" fill="#0E1320"/><ellipse cx="124" cy="138" rx="6" ry="9" fill="#0E1320"/><circle cx="160" cy="80" r="4" fill="#7FE3D6" opacity="0.5"/><circle cx="172" cy="64" r="5" fill="#7FE3D6" opacity="0.75"/><circle cx="184" cy="46" r="6" fill="#7FE3D6"/></svg>